<?xml version="1.0" encoding="UTF-8" ?>
<svg version="1.1" width="640" height="640" xmlns="http://www.w3.org/2000/svg" shape-rendering="crispEdges">
<rect x="220" y="80" width="70" height="50" fill="#FFFFFF" />
<rect x="290" y="80" width="10" height="50" fill="#000000" />
<rect x="300" y="80" width="10" height="40" fill="#FFFFFF" />
<rect x="310" y="80" width="10" height="50" fill="#000000" />
<rect x="320" y="80" width="70" height="50" fill="#FFFFFF" />
<rect x="210" y="90" width="10" height="190" fill="#FFFFFF" />
<rect x="390" y="90" width="10" height="190" fill="#FFFFFF" />
<rect x="200" y="100" width="10" height="100" fill="#FFFFFF" />
<rect x="400" y="100" width="10" height="90" fill="#FFFFFF" />
<rect x="190" y="110" width="10" height="90" fill="#000000" />
<rect x="410" y="110" width="10" height="90" fill="#000000" />
<rect x="180" y="120" width="10" height="440" fill="#FFFFFF" />
<rect x="300" y="120" width="10" height="10" fill="#000000" />
<rect x="420" y="120" width="10" height="440" fill="#FFFFFF" />
<rect x="170" y="130" width="10" height="120" fill="#FFFFFF" />
<rect x="220" y="130" width="60" height="150" fill="#FFFFFF" />
<rect x="280" y="130" width="10" height="60" fill="#000000" />
<rect x="290" y="130" width="30" height="60" fill="#847E87" />
<rect x="320" y="130" width="10" height="60" fill="#000000" />
<rect x="330" y="130" width="60" height="150" fill="#FFFFFF" />
<rect x="430" y="130" width="10" height="130" fill="#FFFFFF" />
<rect x="280" y="190" width="10" height="90" fill="#FFFFFF" />
<rect x="290" y="190" width="30" height="10" fill="#000000" />
<rect x="320" y="190" width="10" height="90" fill="#FFFFFF" />
<rect x="400" y="190" width="10" height="90" fill="#000000" />
<rect x="190" y="200" width="10" height="370" fill="#FFFFFF" />
<rect x="200" y="200" width="10" height="80" fill="#000000" />
<rect x="290" y="200" width="10" height="80" fill="#FFFFFF" />
<rect x="300" y="200" width="10" height="80" fill="#000000" />
<rect x="310" y="200" width="10" height="80" fill="#FFFFFF" />
<rect x="410" y="200" width="10" height="370" fill="#FFFFFF" />
<rect x="170" y="250" width="10" height="10" fill="#847E87" />
<rect x="160" y="260" width="10" height="60" fill="#847E87" />
<rect x="170" y="260" width="10" height="60" fill="#FFFFFF" />
<rect x="200" y="280" width="10" height="290" fill="#FFFFFF" />
<rect x="210" y="280" width="90" height="10" fill="#000000" />
<rect x="300" y="280" width="10" height="300" fill="#FFFFFF" />
<rect x="310" y="280" width="90" height="10" fill="#000000" />
<rect x="400" y="280" width="10" height="290" fill="#FFFFFF" />
<rect x="210" y="290" width="90" height="280" fill="#FFFFFF" />
<rect x="310" y="290" width="90" height="280" fill="#FFFFFF" />
<rect x="170" y="320" width="10" height="10" fill="#847E87" />
<rect x="160" y="330" width="10" height="60" fill="#847E87" />
<rect x="170" y="330" width="10" height="60" fill="#FFFFFF" />
<rect x="430" y="370" width="10" height="190" fill="#FFFFFF" />
<rect x="170" y="390" width="10" height="10" fill="#847E87" />
<rect x="170" y="400" width="10" height="160" fill="#FFFFFF" />
<rect x="440" y="400" width="10" height="140" fill="#FFFFFF" />
<rect x="160" y="420" width="10" height="120" fill="#FFFFFF" />
<rect x="220" y="570" width="80" height="10" fill="#FFFFFF" />
<rect x="310" y="570" width="80" height="10" fill="#FFFFFF" />
</svg>